<?xml version="1.0" encoding="utf-8"?>
<!-- Generator: Adobe Illustrator 21.1.0, SVG Export Plug-In . SVG Version: 6.00 Build 0)  -->
<svg version="1.1" id="Layer_1" xmlns="http://www.w3.org/2000/svg" xmlns:xlink="http://www.w3.org/1999/xlink" x="0px" y="0px"
	 viewBox="0 0 128 128" style="enable-background:new 0 0 128 128;" xml:space="preserve">
<style type="text/css">
	.st0{fill:#FFDD77;}
	.st1{fill:#FFA869;}
	.st2{fill:#FF697D;}
	.st3{fill:#A66366;}
	.st4{fill:#FFFFFF;}
	.st5{fill:#3F4A54;}
	.st6{fill:#FC697D;}
	.st7{fill:#E34F66;}
	.st8{fill:#F77C3F;}
	.st9{fill:#49C4AC;}
	.st10{fill:#70E9D4;}
	.st11{opacity:0.5;}
	.st12{fill:#EFB68F;}
	.st13{fill:#90C5E1;}
	.st14{fill:#70E7D2;}
	.st15{fill:#009F96;}
	.st16{fill:none;stroke:#FFFFFF;stroke-width:6;stroke-linecap:round;stroke-linejoin:round;stroke-miterlimit:10;}
	.st17{fill:#8D5459;}
	.st18{fill:#6A3C41;}
	.st19{fill:#3B9CC9;}
	.st20{opacity:0.2;}
	.st21{fill:#BA8389;}
	.st22{fill:#7F4B52;}
	.st23{fill:none;stroke:#3F4A54;stroke-width:6;stroke-linecap:round;stroke-linejoin:round;stroke-miterlimit:10;}
</style>
<g>
	<g>
		<g>
			<g>
				<path class="st4" d="M82.1,51c0-15-12.3-27.2-27.3-27c-14.3,0.2-26.2,11.8-26.6,26.1c0,0.3,0,0.6,0,0.9c0,7.4-3.7,14.1-9.5,18.6
					C11.5,75.1,7.2,83.9,8.2,93.7c1.2,12.5,11.2,22.7,23.8,24.1c16.3,1.8,30.1-10.9,30.1-26.8c0,0,0-0.1,0-0.1
					c0-7.2,3.3-13.9,9.1-18.2C77.8,67.7,82.1,59.9,82.1,51z"/>
			</g>
			<g>
				<path class="st5" d="M36.2,34.8c-0.8,0-1.6-0.3-2.1-0.9c-1.2-1.2-1.1-3.1,0-4.2c5.6-5.5,12.9-8.6,20.6-8.7
					c4.7-0.1,9.2,0.9,13.3,2.9c1.5,0.7,2.1,2.5,1.4,4c-0.7,1.5-2.5,2.1-4,1.4c-3.3-1.6-6.9-2.4-10.7-2.3c-6.2,0.1-12,2.5-16.5,6.9
					C37.7,34.5,36.9,34.8,36.2,34.8z"/>
			</g>
			<g>
				<path class="st5" d="M19.3,115.9c-0.6,0-1.2-0.2-1.8-0.6C10.5,110.3,6,102.5,5.2,94C4.3,84.9,7.5,76.1,14,69.7
					c1.2-1.2,3.1-1.2,4.2,0c1.2,1.2,1.2,3.1,0,4.2c-5.2,5.1-7.7,12.2-7,19.5c0.7,6.8,4.2,13,9.8,17c1.3,1,1.6,2.8,0.7,4.2
					C21.1,115.5,20.2,115.9,19.3,115.9z"/>
			</g>
			<g>
				<circle class="st8" cx="35.1" cy="91" r="17"/>
			</g>
		</g>
		<g>
			<circle class="st9" cx="97.1" cy="83" r="12"/>
		</g>
		<g>
			<path class="st10" d="M114.1,98c0,9.4-7.6,17-17,17s-17-7.6-17-17s7.6-12,17-12S114.1,88.6,114.1,98z"/>
		</g>
		<g>
			<path class="st5" d="M106,115.5c-1,0-2-0.5-2.6-1.4c-0.9-1.4-0.4-3.3,1-4.1c4.2-2.6,6.7-7,6.7-11.9c0-2.7-0.8-5.4-2.3-7.6
				c-1-1.5-1.7-3-2.1-4.5l-0.2-0.6c-0.2-0.8-0.4-1.7-0.5-2.9c-0.1-1.9-0.9-3.7-2.1-5.2c-1.1-1.3-0.9-3.2,0.3-4.2
				c1.3-1.1,3.2-0.9,4.2,0.3c2.1,2.5,3.3,5.5,3.5,8.7c0,0.5,0.1,1,0.3,1.7l0.2,0.6c0.2,0.9,0.7,1.8,1.3,2.8c2.1,3.2,3.2,7,3.2,10.9
				c0,7-3.6,13.4-9.5,17.1C107,115.4,106.5,115.5,106,115.5z"/>
		</g>
		<g>
			<path class="st0" d="M100,43.6c-22.7-12.5-51.4-12.2-71.9,0c-6.2,3.7-9.8,10.4-7,17c1.5,3.7,4.5,6.3,8,7.4v51c0,2.8,2.2,5,5,5h60
				c2.8,0,5-2.2,5-5V68c3.5-1.1,6.5-3.7,8-7.4C109.8,54,106.3,47.1,100,43.6z"/>
		</g>
		<g>
			<path class="st5" d="M94,127H34c-4.4,0-8-3.6-8-8V78c0-1.7,1.3-3,3-3s3,1.3,3,3v41c0,1.1,0.9,2,2,2h60c1.1,0,2-0.9,2-2V68
				c0-1.3,0.8-2.5,2.1-2.9c2.8-0.9,5-3,6.2-5.7c2.3-5.6-1.3-10.8-5.7-13.2c-21.4-11.8-49.1-11.8-69,0c-4.5,2.7-8,7.8-5.8,13.3
				c1.1,2.7,3.4,4.8,6.2,5.7c1.6,0.5,2.4,2.2,1.9,3.8c-0.5,1.6-2.2,2.4-3.8,1.9c-4.5-1.4-8.1-4.8-9.9-9.1
				c-3.1-7.6,0.2-15.9,8.3-20.7c21.6-12.8,51.7-12.9,74.9,0c8,4.4,11.5,13.1,8.4,20.8c-1.5,3.6-4.3,6.6-7.8,8.3v49
				C102,123.4,98.4,127,94,127z"/>
		</g>
		<g>
			<path class="st5" d="M109,127H54c-1.7,0-3-1.3-3-3s1.3-3,3-3h55c1.7,0,3,1.3,3,3S110.7,127,109,127z"/>
		</g>
		<g>
			<path class="st4" d="M91.6,48.3c-8.1-3.9-17.4-5.9-27.1-5.9c-0.2,0-0.9,0-1.1,0c-9.8,0-19.1,2-27.1,5.9c-2,1-3.6,2.7-4.2,4.8
				C31,57,33.2,61,37,62.2l0,0V111c0,2.8,2.2,5,5,5h43.9c2.8,0,5-2.2,5-5V62.2l0,0c3.7-1.2,6-5.2,4.9-9.1
				C95.2,50.9,93.6,49.2,91.6,48.3z"/>
		</g>
		<g class="st11">
			<g>
				<circle class="st12" cx="51.5" cy="107" r="3"/>
			</g>
			<g>
				<circle class="st12" cx="84.1" cy="98.3" r="3"/>
			</g>
			<g>
				<circle class="st12" cx="68" cy="70.6" r="3"/>
			</g>
			<g>
				<circle class="st12" cx="84.1" cy="62.1" r="3"/>
			</g>
		</g>
	</g>
	<circle class="st5" cx="124" cy="124" r="3"/>
</g>
</svg>
